HIERARCHY
ROOT SpineBase
{
  OFFSET 0.000000 0.000000 0.000000
  CHANNELS 6 Xposition Yposition Zposition Zrotation Xrotation Yrotation
  JOINT SpineMid
  {
    OFFSET -0.000000 35.368996 0.000000
    CHANNELS 3 Zrotation Xrotation Yrotation
    JOINT SpineShoulder
    {
      OFFSET -0.601397 25.868213 -0.971778
      CHANNELS 3 Zrotation Xrotation Yrotation
      JOINT Neck
      {
        OFFSET -0.574803 8.434081 -0.662178
        CHANNELS 3 Zrotation Xrotation Yrotation
        JOINT Head
        {
          OFFSET -8.161104 10.135503 7.379665
          CHANNELS 3 Zrotation Xrotation Yrotation
          End Site
          {
            OFFSET 0 0 0
          }
        }
      }
      JOINT ShoulderLeft
      {
        OFFSET -7.285954 -11.418694 19.132043
        CHANNELS 3 Zrotation Xrotation Yrotation
        JOINT ElbowLeft
        {
          OFFSET -4.895387 -25.423864 6.241172
          CHANNELS 3 Zrotation Xrotation Yrotation
          JOINT WristLeft
          {
            OFFSET 3.535093 -7.457916 -26.985298
            CHANNELS 3 Zrotation Xrotation Yrotation
            JOINT HandLeft
            {
              OFFSET 1.928977 -5.527307 -7.309072
              CHANNELS 3 Zrotation Xrotation Yrotation
              JOINT HandTipLeft
              {
                OFFSET 2.536414 -5.751370 -4.399793
                CHANNELS 3 Zrotation Xrotation Yrotation
                End Site
                {
                  OFFSET 0 0 0
                }
              }
              JOINT ThumbLeft
              {
                OFFSET 2.081267 6.888238 -5.246706
                CHANNELS 3 Zrotation Xrotation Yrotation
                End Site
                {
                  OFFSET 0 0 0
                }
              }
            }
          }
        }
      }
      JOINT ShoulderRight
      {
        OFFSET 4.413192 -6.275618 -14.874621
        CHANNELS 3 Zrotation Xrotation Yrotation
        JOINT ElbowRight
        {
          OFFSET 2.922807 -26.398315 -8.173520
          CHANNELS 3 Zrotation Xrotation Yrotation
          JOINT WristRight
          {
            OFFSET -5.139158 -22.436018 -4.478628
            CHANNELS 3 Zrotation Xrotation Yrotation
            JOINT HandRight
            {
              OFFSET -1.717177 -7.738756 1.678359
              CHANNELS 3 Zrotation Xrotation Yrotation
              JOINT HandTipRight
              {
                OFFSET -1.196810 -6.415056 1.003104
                CHANNELS 3 Zrotation Xrotation Yrotation
                End Site
                {
                  OFFSET 0 0 0
                }
              }
              JOINT ThumbRight
              {
                OFFSET -3.550715 -2.879334 -6.017081
                CHANNELS 3 Zrotation Xrotation Yrotation
                End Site
                {
                  OFFSET 0 0 0
                }
              }
            }
          }
        }
      }
    }
  }
  JOINT HipLeft
  {
    OFFSET -2.646504 -1.259530 0.438070
    CHANNELS 3 Zrotation Xrotation Yrotation
    JOINT KneeLeft
    {
      OFFSET 7.486929 -43.550869 11.448059
      CHANNELS 3 Zrotation Xrotation Yrotation
      JOINT AnkleLeft
      {
        OFFSET 6.369069 -30.634085 -1.988794
        CHANNELS 3 Zrotation Xrotation Yrotation
        JOINT FootLeft
        {
          OFFSET -5.697001 -4.172592 2.702665
          CHANNELS 3 Zrotation Xrotation Yrotation
          End Site
          {
            OFFSET 0 0 0
          }
        }
      }
    }
  }
  JOINT HipRight
  {
    OFFSET 2.187482 2.843108 -8.667623
    CHANNELS 3 Zrotation Xrotation Yrotation
    JOINT KneeRight
    {
      OFFSET 5.508023 -36.582190 -6.156633
      CHANNELS 3 Zrotation Xrotation Yrotation
      JOINT AnkleRight
      {
        OFFSET 8.644003 -36.713896 -3.254905
        CHANNELS 3 Zrotation Xrotation Yrotation
        JOINT FootRight
        {
          OFFSET -2.798607 -8.206711 -3.904396
          CHANNELS 3 Zrotation Xrotation Yrotation
          End Site
          {
            OFFSET 0 0 0
          }
        }
      }
    }
  }
}
MOTION
Frames: 16
Frame Time: 0.033333
18.507735 83.469171 301.870097 0.000000 0.000000 62.037279 -0.000000 -0.000000 -62.037279 -0.000000 0.000000 0.000000 -0.000000 0.000000 0.000000 0.000000 0.000000 0.000000 -0.000000 0.000000 0.000000 -0.000000 0.000000 0.000000 -0.000000 0.000000 0.000000 -0.000000 0.000000 0.000000 0.000000 0.000000 0.000000 0.000000 0.000000 0.000000 -0.000000 0.000000 0.000000 -0.000000 0.000000 0.000000 -0.000000 0.000000 0.000000 -0.000000 0.000000 0.000000 0.000000 0.000000 0.000000 0.000000 0.000000 0.000000 -0.000000 -0.000000 -62.037279 -0.000000 0.000000 0.000000 -0.000000 0.000000 0.000000 0.000000 0.000000 0.000000 -0.000000 -0.000000 -62.037279 -0.000000 0.000000 0.000000 -0.000000 0.000000 0.000000 0.000000 0.000000 0.000000
18.566196 83.403555 301.817537 0.120737 0.116904 62.114047 -0.159800 0.052039 -62.114098 -0.000000 0.000000 0.000000 1.911178 2.380538 0.472224 0.000000 0.000000 0.000000 -0.000000 0.000000 0.000000 -0.000000 0.000000 0.000000 -0.340536 0.482923 0.617477 2.329090 2.306398 -0.900072 0.000000 0.000000 0.000000 0.000000 0.000000 0.000000 -0.000000 0.000000 0.000000 -0.000000 0.000000 0.000000 2.487867 0.481639 0.424747 -3.669727 -0.341946 -0.658377 0.000000 0.000000 0.000000 0.000000 0.000000 0.000000 -0.159800 0.052039 -62.114098 -0.000000 0.000000 0.000000 -3.785656 -3.414259 1.970069 0.000000 0.000000 0.000000 -0.159800 0.052039 -62.114098 -0.000000 0.000000 0.000000 -0.000000 0.000000 0.000000 0.000000 0.000000 0.000000
18.605310 83.342616 301.774190 0.220502 0.235827 62.172195 -0.311488 0.084915 -62.172418 -0.858178 0.645377 -0.018579 4.357129 3.814763 0.924589 0.000000 0.000000 0.000000 0.858442 -0.645026 0.028244 -0.000000 0.000000 0.000000 -0.674216 0.854062 1.185362 4.350574 4.169683 -1.747330 0.000000 0.000000 0.000000 0.000000 0.000000 0.000000 0.858442 -0.645026 0.028244 -0.000000 0.000000 0.000000 4.735470 0.903439 0.798451 -6.780428 -0.589790 -1.252704 0.000000 0.000000 0.000000 0.000000 0.000000 0.000000 -0.311488 0.084915 -62.172418 -0.000000 0.000000 0.000000 -6.811667 -6.057498 3.136893 0.000000 0.000000 0.000000 -0.311488 0.084915 -62.172418 -0.000000 0.000000 0.000000 -0.000000 0.000000 0.000000 0.000000 0.000000 0.000000
18.625078 83.286355 301.740056 0.299384 0.356776 62.212133 -0.455203 0.098533 -62.212673 -1.232610 0.911104 -0.024916 5.956284 5.261727 1.298623 0.000000 0.000000 0.000000 1.233162 -0.910357 0.044514 -0.000000 0.000000 0.000000 -0.998778 1.115929 1.703083 6.040181 5.607672 -2.516627 0.000000 0.000000 0.000000 0.000000 0.000000 0.000000 1.233162 -0.910357 0.044514 -0.000000 0.000000 0.000000 6.707816 1.251444 1.122618 -9.323526 -0.749017 -1.764804 0.000000 0.000000 0.000000 0.000000 0.000000 0.000000 -0.455203 0.098533 -62.212673 -0.000000 0.000000 0.000000 -9.096925 -7.800430 3.590629 0.000000 0.000000 0.000000 -0.455203 0.098533 -62.212673 -0.000000 0.000000 0.000000 -0.000000 0.000000 0.000000 0.000000 0.000000 0.000000
18.625499 83.234772 301.715134 0.357465 0.479761 62.234075 0.127712 0.634253 -62.224420 -1.426833 0.252066 -0.068611 7.123572 6.329225 1.634300 0.000000 0.000000 0.000000 1.572405 -1.138342 0.061394 -0.000000 0.000000 0.000000 -1.312358 1.271273 2.170295 7.383924 6.646575 -3.189488 0.000000 0.000000 0.000000 0.000000 0.000000 0.000000 1.572405 -1.138342 0.061394 -0.000000 0.000000 0.000000 8.375777 1.513537 1.399746 -11.289352 -0.825736 -2.180329 0.000000 0.000000 0.000000 0.000000 0.000000 0.000000 -0.591046 0.092809 -62.235093 -0.000000 0.000000 0.000000 -10.665957 -8.591939 3.417751 0.000000 0.000000 0.000000 -0.591046 0.092809 -62.235093 -0.000000 0.000000 0.000000 0.175524 0.789758 -0.353065 0.000000 0.000000 0.000000
18.606574 83.187866 301.699424 0.394821 0.604795 62.238049 0.129174 0.748978 -62.228727 -1.667029 0.264424 -0.084828 7.836939 6.978682 1.943392 0.000000 0.000000 0.000000 1.876739 -1.329492 0.078366 -0.000000 0.000000 0.000000 -1.613472 1.323001 2.586864 8.374933 7.313984 -3.753870 0.000000 0.000000 0.000000 0.000000 0.000000 0.000000 1.876739 -1.329492 0.078366 -0.000000 0.000000 0.000000 9.715758 1.679580 1.632589 -12.667864 -0.825601 -2.488844 0.000000 0.000000 0.000000 0.000000 0.000000 0.000000 -0.719080 0.067669 -62.239708 -0.000000 0.000000 0.000000 -11.527881 -8.424018 2.680552 0.000000 0.000000 0.000000 -0.719080 0.067669 -62.239708 -0.000000 0.000000 0.000000 0.161816 0.998563 -0.417397 0.000000 0.000000 0.000000
18.551891 83.144483 301.691102 0.387581 0.732117 62.212422 0.133758 0.841771 -62.204143 -1.843218 0.243190 -0.100127 8.810173 7.867176 2.155903 0.000000 0.000000 0.000000 2.140557 -1.482183 0.094535 -0.000000 0.000000 0.000000 -2.010118 1.121583 3.047963 8.958060 7.585868 -4.253980 0.000000 0.000000 0.000000 0.000000 0.000000 0.000000 1.716693 -0.751715 0.297752 0.419955 -0.732681 -0.208795 11.068381 2.293695 1.721027 -12.773201 -1.975792 -2.418356 0.000000 0.000000 0.000000 0.000000 0.000000 0.000000 -0.828375 0.001591 -62.214887 -0.000000 0.000000 0.000000 -12.306643 -7.362959 1.068090 0.000000 0.000000 0.000000 -0.828375 0.001591 -62.214887 -0.000000 0.000000 0.000000 0.124840 1.224548 -0.476086 0.000000 0.000000 0.000000
18.488021 83.109034 301.692138 0.377737 0.867028 62.154536 0.103489 0.918200 -62.147951 -1.971982 0.201142 -0.114686 9.312301 7.577873 1.850044 0.000000 0.000000 0.000000 2.360964 -1.583685 0.109814 -0.000000 0.000000 0.000000 -2.380244 0.599071 3.369666 9.186178 7.723102 -4.607356 0.000000 0.000000 0.000000 0.000000 0.000000 0.000000 1.918970 -0.758585 0.328172 0.437138 -0.827640 -0.224235 11.742765 2.014979 1.953134 -12.921351 -1.414086 -2.547944 0.000000 0.000000 0.000000 0.000000 0.000000 0.000000 -0.943068 -0.070958 -62.157978 -0.000000 0.000000 0.000000 -10.823541 -4.338690 -1.313891 0.000000 0.000000 0.000000 -0.943068 -0.070958 -62.157978 -0.000000 0.000000 0.000000 0.095912 1.340135 -0.501130 0.000000 0.000000 0.000000
18.415472 83.075107 301.691348 0.357855 1.009339 62.141665 0.061209 0.976709 -62.136873 -2.074944 0.158420 -0.127788 6.671552 5.501216 2.566201 0.000000 0.000000 0.000000 2.555755 -1.672442 0.123682 -0.000000 0.000000 0.000000 -2.475699 0.776743 3.555928 8.834227 7.111207 -4.590504 0.000000 0.000000 0.000000 0.000000 0.000000 0.000000 2.101730 -0.764505 0.354140 0.448267 -0.910749 -0.236551 11.622645 1.866062 1.976759 -13.623356 -0.704298 -2.775849 0.000000 0.000000 0.000000 0.000000 0.000000 0.000000 -1.059583 -0.155238 -62.146253 -0.000000 0.000000 0.000000 -9.211970 -1.506591 -3.614235 0.000000 0.000000 0.000000 -1.059583 -0.155238 -62.146253 -0.000000 0.000000 0.000000 -0.008602 1.528856 -0.513907 0.000000 0.000000 0.000000
18.351852 83.045822 301.710089 0.352082 1.134962 62.118275 0.017063 1.031021 -62.115154 -2.177127 0.114904 -0.141116 1.880573 1.937698 3.654533 0.000000 0.000000 0.000000 2.732717 -1.740252 0.137106 -0.000000 0.000000 0.000000 -2.628887 0.415357 3.641908 8.978302 7.312367 -4.747614 0.000000 0.000000 0.000000 0.000000 0.000000 0.000000 2.262913 -0.753125 0.380467 1.376459 -1.242002 -0.357790 10.283722 1.115673 2.294161 -13.512979 -0.269516 -2.717075 0.000000 0.000000 0.000000 0.000000 0.000000 0.000000 -1.167864 -0.219510 -62.124000 -0.000000 0.000000 0.000000 -7.183446 1.129066 -5.674573 0.000000 0.000000 0.000000 -1.167864 -0.219510 -62.124000 -0.000000 0.000000 0.000000 -0.152075 1.756204 -0.520224 0.000000 0.000000 0.000000
18.288655 83.024513 301.758385 0.346285 1.233850 62.065898 -0.048604 1.060364 -62.064686 -2.229460 0.064159 -0.151746 -0.508601 0.249421 4.199052 0.000000 0.000000 0.000000 2.847409 -1.744173 0.147649 -0.000000 0.000000 0.000000 -2.479184 0.487287 3.465109 8.704804 7.062591 -4.580061 0.000000 0.000000 0.000000 0.000000 0.000000 0.000000 2.365799 -0.722606 0.398226 1.477807 -1.217976 -0.394637 9.325205 0.012721 2.477650 -12.150963 0.739565 -2.555171 0.000000 0.000000 0.000000 0.000000 0.000000 0.000000 -1.252318 -0.272014 -62.072599 0.584966 0.785134 0.121071 -6.449456 1.942134 -7.184762 0.000000 0.000000 0.000000 -1.252318 -0.272014 -62.072599 -0.000000 0.000000 0.000000 -0.170769 1.967321 -0.581721 0.000000 0.000000 0.000000
18.214822 83.014614 301.826763 0.322906 1.312612 62.031756 -0.097564 1.080400 -62.032319 -2.281434 0.024220 -0.161798 -2.871674 -1.500538 4.629424 0.000000 0.000000 0.000000 2.963480 -1.748926 0.158292 -0.000000 0.000000 0.000000 -2.462837 0.322915 3.388697 8.450056 7.141213 -4.389812 0.000000 0.000000 0.000000 0.000000 0.000000 0.000000 2.461702 -0.764831 0.410338 1.548973 -1.128657 -0.419070 8.421711 -0.822242 2.555043 -11.057198 1.035263 -2.349596 0.000000 0.000000 0.000000 0.000000 0.000000 0.000000 -1.310762 -0.330339 -62.039234 0.626568 1.051898 0.171976 -5.634379 2.028848 -7.264175 0.000000 0.000000 0.000000 -1.310762 -0.330339 -62.039234 -0.000000 0.000000 0.000000 0.012898 2.219808 -0.756512 0.000000 0.000000 0.000000
18.171004 83.005934 301.910089 0.320692 1.360320 61.848015 -0.158599 1.098243 -61.850467 -2.312158 -0.004852 -0.169160 -3.808963 -2.166070 4.819044 0.000000 0.000000 0.000000 3.039768 -1.724778 0.166428 -0.000000 0.000000 0.000000 -2.334065 0.318620 3.214774 8.303771 7.035506 -4.279553 0.000000 0.000000 0.000000 0.000000 0.000000 0.000000 2.534662 -0.752884 0.418226 1.579294 -1.073477 -0.434181 7.664604 -1.484017 2.590859 -9.515807 1.243901 -2.107605 0.000000 0.000000 0.000000 0.000000 0.000000 0.000000 -1.350719 -0.358995 -61.856054 0.655578 1.417886 0.243645 -5.706058 0.923101 -6.422831 0.000000 0.000000 0.000000 -1.350719 -0.358995 -61.856054 -0.000000 0.000000 0.000000 0.057660 2.586388 -0.901335 0.000000 0.000000 0.000000
18.174937 83.013293 302.019363 0.372288 1.375434 61.495428 -0.212778 1.124188 -61.498865 -2.322179 -0.031784 -0.172777 -3.493995 -1.836785 4.840087 0.000000 0.000000 0.000000 3.044463 -1.683957 0.168563 -0.000000 0.000000 0.000000 -2.338509 0.234196 3.192575 8.117527 6.572008 -4.351658 0.000000 0.000000 0.000000 0.000000 0.000000 0.000000 2.519989 -0.715305 0.425935 1.614586 -1.022649 -0.454065 7.166467 -1.909944 2.607273 -9.385350 0.782211 -1.954504 0.000000 0.000000 0.000000 0.000000 0.000000 0.000000 -1.386385 -0.329165 -61.503879 0.670586 1.866485 0.332874 -6.228097 -1.328830 -4.521238 0.000000 0.000000 0.000000 -1.386385 -0.329165 -61.503879 -0.000000 0.000000 0.000000 0.082381 2.899989 -1.018387 0.000000 0.000000 0.000000
18.225737 83.017221 302.120788 0.466612 1.379616 61.029780 -0.244195 1.158227 -61.032804 -2.329994 -0.040480 -0.172123 -2.253538 -0.836503 4.704458 0.000000 0.000000 0.000000 2.999981 -1.677459 0.164703 -0.000000 0.000000 0.000000 -2.267225 0.415708 3.157637 7.778960 5.593559 -4.442497 0.000000 0.000000 0.000000 0.000000 0.000000 0.000000 2.456115 -0.714180 0.427140 1.641409 -1.002702 -0.464355 6.947892 -1.692660 2.495508 -9.299195 0.165944 -1.832591 0.000000 0.000000 0.000000 0.000000 0.000000 0.000000 -1.432997 -0.259917 -61.038648 0.679757 2.284208 0.416231 -7.082967 -4.113755 -2.200746 0.000000 0.000000 0.000000 -1.432997 -0.259917 -61.038648 -0.000000 0.000000 0.000000 0.136829 3.193475 -1.143477 0.000000 0.000000 0.000000
18.278174 83.026460 302.236747 0.555425 1.372965 60.501556 -0.265721 1.186992 -60.503851 -2.331969 -0.037617 -0.169718 0.164205 0.888717 4.246775 0.000000 0.000000 0.000000 2.945418 -1.679794 0.159538 -0.000000 0.000000 0.000000 -2.165796 0.374029 3.008070 7.295775 5.198575 -4.220820 0.000000 0.000000 0.000000 0.000000 0.000000 0.000000 2.386854 -0.748030 0.422628 1.653464 -0.972402 -0.465316 7.121377 -1.885665 2.592270 -10.009485 0.972761 -2.063743 0.000000 0.000000 0.000000 0.000000 0.000000 0.000000 -2.180186 -0.579180 -60.658047 0.681339 3.498767 0.630883 -8.570277 -8.043763 0.922113 0.000000 0.000000 0.000000 -0.604738 0.007591 -60.423627 -0.252287 -0.849964 -0.087528 0.166620 3.498757 -1.260120 0.000000 0.000000 0.000000
